<?xml version="1.0" encoding="UTF-8" standalone="no"?><!DOCTYPE svg PUBLIC "-//W3C//DTD SVG 1.1//EN" "http://www.w3.org/Graphics/SVG/1.1/DTD/svg11.dtd"><svg width="100%" height="100%" viewBox="0 0 242 225" version="1.1" xmlns="http://www.w3.org/2000/svg" xmlns:xlink="http://www.w3.org/1999/xlink" xml:space="preserve" xmlns:serif="http://www.serif.com/" style="fill-rule:evenodd;clip-rule:evenodd;stroke-linecap:round;stroke-linejoin:round;stroke-miterlimit:1.5;"><g><path d="M6.819,220.297l-0,-212.071l227.53,-0l0,212.071l-227.53,0Z" style="fill:none;stroke:#fff;stroke-width:8.33px;"/><g><g><path d="M135.844,127.204l47.553,47.553" style="fill:none;stroke:#fff;stroke-width:8.33px;"/><path d="M180.25,49.698l-47.303,47.303" style="fill:none;stroke:#fff;stroke-width:8.33px;"/><circle cx="120.975" cy="114.405" r="20.021" style="fill:none;stroke:#fff;stroke-width:8.33px;"/></g><path d="M75.608,57.714c12.579,-10.282 28.647,-16.45 46.144,-16.45c40.298,0 73.015,32.717 73.015,73.015c0,40.298 -32.717,73.015 -73.015,73.015c-18.416,-0 -35.249,-6.833 -48.1,-18.106l17.201,0l0,-20.398l-33.446,-0c-5.531,-10.277 -8.669,-22.031 -8.669,-34.511c-0,-13.157 3.487,-25.506 9.587,-36.167l32.528,0l0,-20.398l-15.245,-0Z" style="fill:none;stroke:#fff;stroke-width:8.33px;"/><rect x="36.855" y="57.714" width="53.998" height="20.398" style="fill:none;stroke:#fff;stroke-width:8.33px;"/><rect x="36.855" y="148.79" width="53.998" height="20.398" style="fill:none;stroke:#fff;stroke-width:8.33px;"/></g></g></svg>