<?xml version="1.0" encoding="UTF-8" standalone="no"?><!DOCTYPE svg PUBLIC "-//W3C//DTD SVG 1.1//EN" "http://www.w3.org/Graphics/SVG/1.1/DTD/svg11.dtd"><svg width="100%" height="100%" viewBox="0 0 255 234" version="1.1" xmlns="http://www.w3.org/2000/svg" xmlns:xlink="http://www.w3.org/1999/xlink" xml:space="preserve" xmlns:serif="http://www.serif.com/" style="fill-rule:evenodd;clip-rule:evenodd;stroke-linejoin:round;stroke-miterlimit:2;"><g id="activo"><path d="M22.386,214.98l0,11.989c0,3.451 2.798,6.25 6.25,6.25l58.871,-0c3.452,-0 6.25,-2.799 6.25,-6.25l0,-11.989l55.712,-0l-0,11.989c-0,3.451 2.798,6.25 6.25,6.25l58.464,-0c3.451,-0 6.25,-2.799 6.25,-6.25l-0,-11.989l14.945,-0c3.452,-0 6.25,-2.798 6.25,-6.25l0,-46.881l4.008,-0c3.452,-0 6.25,-2.798 6.25,-6.25l0,-21.318c0,-3.451 -2.798,-6.25 -6.25,-6.25l-4.008,0l0,-40.322l4.008,-0c3.452,-0 6.25,-2.799 6.25,-6.25l0,-21.318c0,-3.452 -2.798,-6.25 -6.25,-6.25l-4.008,0l0,-46.393c0,-3.451 -2.798,-6.25 -6.25,-6.25l-227.53,0c-3.452,0 -6.25,2.799 -6.25,6.25l-0,201.232c-0,3.452 2.798,6.25 6.25,6.25l14.538,-0Zm185.547,-0c-0,-0 -0,5.739 -0,5.739l-45.964,-0l-0,-5.739l45.964,-0Zm-126.676,-0c0,-0 0,5.739 0,5.739l-46.371,-0l0,-5.739l46.371,-0Zm147.871,-161.089l0,-40.143l-215.03,0c-0,0 -0,188.732 -0,188.732l215.03,-0l0,-40.631l-12.774,-0c-3.451,-0 -6.25,-2.798 -6.25,-6.25l0,-21.318c0,-3.451 2.799,-6.25 6.25,-6.25l12.774,0l0,-40.322l-12.774,-0c-3.451,-0 -6.25,-2.799 -6.25,-6.25l0,-21.318c0,-3.452 2.799,-6.25 6.25,-6.25l12.774,0Zm-113.765,31.369c-1.888,0.598 -3.678,1.417 -5.34,2.425l-17.146,-17.145c-2.439,-2.439 -6.399,-2.439 -8.838,-0c-2.44,2.439 -2.44,6.399 -0,8.839l17.26,17.26c-0.934,1.635 -1.687,3.386 -2.232,5.225l-24.342,0c-3.45,0 -6.25,2.801 -6.25,6.25c-0,3.45 2.8,6.25 6.25,6.25l23.922,0c0.456,2.036 1.163,3.978 2.086,5.791l-16.694,16.695c-2.44,2.439 -2.44,6.399 -0,8.838c2.439,2.44 6.399,2.44 8.838,0l16.16,-16.159c1.934,1.3 4.06,2.336 6.326,3.055l-0,22.418c-0,3.45 2.8,6.25 6.25,6.25c3.449,0 6.25,-2.8 6.25,-6.25l-0,-21.766c2.599,-0.533 5.05,-1.472 7.285,-2.748l15.2,15.2c2.44,2.44 6.4,2.44 8.839,0c2.439,-2.439 2.439,-6.399 0,-8.838l-15.085,-15.086c1.368,-2.257 2.387,-4.749 2.982,-7.4l21.417,0c3.45,0 6.25,-2.8 6.25,-6.25c0,-3.449 -2.8,-6.25 -6.25,-6.25l-21.837,0c-0.722,-2.433 -1.807,-4.711 -3.192,-6.77l15.715,-15.715c2.439,-2.44 2.439,-6.4 0,-8.839c-2.439,-2.439 -6.399,-2.439 -8.839,-0l-16.249,16.249c-1.946,-0.99 -4.038,-1.731 -6.236,-2.181l-0,-23.382c-0,-3.45 -2.801,-6.25 -6.25,-6.25c-3.45,-0 -6.25,2.8 -6.25,6.25l-0,24.034Zm124.023,55.271l0,8.818c0,-0 -16.782,-0 -16.782,-0c0,-0 0,-8.818 0,-8.818l16.782,0Zm-116.521,-43.927c6.799,-0 12.318,5.519 12.318,12.318c0,6.798 -5.519,12.318 -12.318,12.318c-6.798,-0 -12.318,-5.52 -12.318,-12.318c0,-6.799 5.52,-12.318 12.318,-12.318Zm116.521,-30.213l0,8.818c0,-0 -16.782,-0 -16.782,-0c0,-0 0,-8.818 0,-8.818l16.782,0Z" style="fill:#fff;"/></g></svg>