<?xml version="1.0" encoding="UTF-8" standalone="no"?><!DOCTYPE svg PUBLIC "-//W3C//DTD SVG 1.1//EN" "http://www.w3.org/Graphics/SVG/1.1/DTD/svg11.dtd"><svg width="100%" height="100%" viewBox="0 0 467 334" version="1.1" xmlns="http://www.w3.org/2000/svg" xmlns:xlink="http://www.w3.org/1999/xlink" xml:space="preserve" xmlns:serif="http://www.serif.com/" style="fill-rule:evenodd;clip-rule:evenodd;stroke-linejoin:round;stroke-miterlimit:2;"><path id="archivo" d="M160.976,70.124l-152.176,0c-4.602,0 -8.333,3.731 -8.333,8.334l0,245.414c0,4.603 3.731,8.334 8.333,8.334l447.542,-0c4.602,-0 8.333,-3.731 8.333,-8.334l0,-245.414c0,-1.863 -0.624,-3.673 -1.773,-5.139l-52.947,-67.586c-1.579,-2.016 -3.999,-3.194 -6.56,-3.194l-185.415,-0c-2.561,-0 -4.98,1.178 -6.56,3.194l-50.444,64.391Zm4.058,16.667c2.561,0 4.98,-1.178 6.56,-3.194l50.444,-64.392c0,0 177.299,0 177.299,0c0,0 48.672,62.128 48.672,62.128l-0,234.206c-0,-0 -430.875,-0 -430.875,-0c-0,-0 -0,-228.748 -0,-228.748c-0,0 147.9,0 147.9,0Z" style="fill:#fff;"/></svg>