<?xml version="1.0" encoding="UTF-8" standalone="no"?><!DOCTYPE svg PUBLIC "-//W3C//DTD SVG 1.1//EN" "http://www.w3.org/Graphics/SVG/1.1/DTD/svg11.dtd"><svg width="100%" height="100%" viewBox="0 0 363 346" version="1.1" xmlns="http://www.w3.org/2000/svg" xmlns:xlink="http://www.w3.org/1999/xlink" xml:space="preserve" xmlns:serif="http://www.serif.com/" style="fill-rule:evenodd;clip-rule:evenodd;stroke-linejoin:round;stroke-miterlimit:2;"><g><path id="archivo" d="M59.405,245.913l-50.438,0c-4.808,0 -8.706,-3.545 -8.706,-7.919l-0,-196.135c-0,-1.771 0.652,-3.49 1.852,-4.884l42.255,-32.55c1.65,-1.916 4.178,-3.035 6.853,-3.035l102.292,-0c2.676,-0 5.203,1.119 6.853,3.035l39.64,29.515l132.601,-0c4.808,-0 8.705,3.545 8.705,7.919l0,97.414c0,4.373 -17.411,-0.188 -17.411,-0.188c-0,0 -0,-89.307 -0,-89.307c-0,-0 -128.134,-0 -128.134,-0c-2.675,-0 -5.203,-1.119 -6.853,-3.036l-39.64,-29.514c-0,0 -93.814,0 -93.814,0c0,0 -37.787,27.363 -37.787,27.363l-0,185.484c-0,0 41.411,0 41.411,0l0.321,15.838Z" style="fill:#fff;"/><path id="archivo1" serif:id="archivo" d="M247.439,131.31l103.433,-0c4.809,-0 8.706,3.545 8.706,7.919l0,196.135c0,4.374 -3.897,7.919 -8.706,7.919l-294.473,0c-4.808,0 -8.706,-3.545 -8.706,-7.919l0,-196.135c0,-1.771 0.653,-3.49 1.853,-4.884l42.255,-32.55c1.65,-1.916 4.177,-3.035 6.853,-3.035l102.291,-0c2.676,-0 5.203,1.119 6.853,3.035l39.641,29.515Zm-4.239,15.838c-2.676,-0 -5.203,-1.12 -6.853,-3.036l-39.641,-29.514c0,0 -93.813,0 -93.813,0c0,-0 -37.788,27.363 -37.788,27.363l0,185.484c0,-0 277.062,-0 277.062,-0c-0,-0 -0,-180.297 -0,-180.297c-0,-0 -98.967,-0 -98.967,-0Z" style="fill:#fff;"/></g></svg>