<?xml version="1.0" encoding="UTF-8" standalone="no"?><!DOCTYPE svg PUBLIC "-//W3C//DTD SVG 1.1//EN" "http://www.w3.org/Graphics/SVG/1.1/DTD/svg11.dtd"><svg width="100%" height="100%" viewBox="0 0 359 350" version="1.1" xmlns="http://www.w3.org/2000/svg" xmlns:xlink="http://www.w3.org/1999/xlink" xml:space="preserve" xmlns:serif="http://www.serif.com/" style="fill-rule:evenodd;clip-rule:evenodd;stroke-linejoin:round;stroke-miterlimit:2;"><g id="editar"><path d="M195.164,101.656l-13.545,16.667l-164.474,-0c-0,-0 -0,211.821 -0,211.821c-0,-0 255.565,-0 255.565,-0l0,-146.149l16.667,-19.981l-0,174.463c-0,4.603 -3.731,8.334 -8.334,8.334l-272.232,-0c-4.602,-0 -8.333,-3.731 -8.333,-8.334l-0,-228.488c-0,-4.602 3.731,-8.333 8.333,-8.333l186.353,-0Z" style="fill:#fff;"/><path d="M267.176,38.479l-143.468,177.47c-1.367,1.696 -1.962,3.764 -1.829,5.778l-9.257,60.773c-0.447,2.932 0.698,5.88 3.006,7.741c2.308,1.862 5.431,2.357 8.202,1.301l59.053,-22.523c1.988,-0.758 3.579,-2.233 4.497,-4.085l143.08,-176.991c0.173,-0.215 0.333,-0.435 0.482,-0.66l25.402,-31.491c2.89,-3.582 2.329,-8.829 -1.254,-11.718l-49.535,-39.96c-3.583,-2.889 -8.829,-2.328 -11.719,1.254l-26.186,32.463c-0.17,0.21 -0.328,0.427 -0.474,0.648Zm-135.924,232.394l32.096,-12.241l-26.923,-21.718l-5.173,33.959Zm10.688,-50.979l36.564,29.495l133.48,-165.088l-36.564,-29.496l-133.48,165.089Zm144.185,-178.422l15.451,-19.153l36.564,29.495l-15.451,19.153l-36.564,-29.495Z" style="fill:#fff;"/></g></svg>